<svg xmlns="http://www.w3.org/2000/svg" xmlns:xlink="http://www.w3.org/1999/xlink" width="24" height="24" viewBox="0 0 24 24">
    <defs>
        <path id="a" d="M0 0h24v24H0z"/>
        <path id="b" d="M4.4 6.6v12.8c0 .11.09.2.2.2h14.8a.2.2 0 0 0 .2-.2V6.6a.2.2 0 0 0-.2-.2H4.6a.2.2 0 0 0-.2.2zM19 4h2a1 1 0 0 1 1 1v16a1 1 0 0 1-1 1H3a1 1 0 0 1-1-1V5a1 1 0 0 1 1-1h2V2.5a.5.5 0 0 1 .5-.5h2a.5.5 0 0 1 .5.5V4h8V2.5a.5.5 0 0 1 .5-.5h2a.5.5 0 0 1 .5.5V4zM7 9v2h2V9H7zm4 0v2h2V9h-2zm4 0v2h2V9h-2zm-8 4v2h2v-2H7zm4 0v2h2v-2h-2zm4 0v2h2v-2h-2z"/>
    </defs>
    <g fill="none" fill-rule="evenodd">
        <mask id="c" fill="#fff">
            <use xlink:href="#b"/>
        </mask>
        <g fill="#50E3C2" mask="url(#c)">
            <path d="M0 0h24v24H0z"/>
        </g>
    </g>
</svg>
