<svg xmlns="http://www.w3.org/2000/svg" xmlns:xlink="http://www.w3.org/1999/xlink" width="24" height="24" viewBox="0 0 24 24">
    <defs>
        <path id="a" d="M0 0h24v24H0z"/>
        <path id="b" d="M12 5C7 5 2.7 8.1 1 12.5 2.7 16.9 7 20 12 20s9.3-3.1 11-7.5C21.3 8.1 17 5 12 5zm0 12.5c-2.8 0-5-2.2-5-5s2.2-5 5-5 5 2.2 5 5-2.2 5-5 5zm0-8c-1.7 0-3 1.3-3 3s1.3 3 3 3 3-1.3 3-3-1.3-3-3-3z"/>
    </defs>
    <g fill="none" fill-rule="evenodd">
        <mask id="c" fill="#fff">
            <use xlink:href="#b"/>
        </mask>
        <g fill="#50E3C2" mask="url(#c)">
            <path d="M0 0h24v24H0z"/>
        </g>
    </g>
</svg>
